<svg width="500" height="500" viewBox="0 0 500 500" fill="none" xmlns="http://www.w3.org/2000/svg">
<g clip-path="url(#clip0_2081_254)">
<path d="M250 500C388.071 500 500 388.071 500 250C500 111.929 388.071 0 250 0C111.929 0 0 111.929 0 250C0 388.071 111.929 500 250 500Z" fill="white"/>
<path d="M164.098 240.98C181.029 240.98 189.035 244.108 201.285 256.423L267.128 322.529C269.097 324.497 269.469 325.263 269.862 326.444C270.059 326.838 270.059 327.407 270.059 327.8C270.059 328.194 270.059 328.785 269.84 329.179C269.469 330.36 269.075 331.147 267.128 333.094L222.132 378.462C220.185 380.409 219.419 380.803 218.238 381.196C217.844 381.393 217.276 381.393 216.882 381.393C216.488 381.393 215.898 381.393 215.504 381.175C214.344 380.803 213.557 380.409 211.61 378.462L84.0371 250.364C80.3403 246.646 81.6965 240.98 87.9308 240.98H164.098ZM349.902 160.022C332.971 160.022 324.965 163.347 312.715 175.662L246.872 241.767C244.903 243.736 244.531 244.502 244.138 245.683C243.941 246.055 243.941 246.646 243.941 247.039C243.941 247.433 243.941 248.024 244.16 248.417C244.531 249.577 244.925 250.386 246.872 252.333L291.868 297.482C293.815 299.429 294.581 299.823 295.762 300.217C296.195 300.376 296.657 300.443 297.118 300.413C297.512 300.413 298.102 300.413 298.496 300.195C299.656 299.823 300.443 299.429 302.39 297.482L429.963 169.384C433.66 165.666 432.304 160 426.069 160L349.902 160.022Z" fill="#04CF66"/>
</g>
<defs>
<clipPath id="clip0_2081_254">
<rect width="500" height="500" fill="white"/>
</clipPath>
</defs>
</svg>
